ExternalForces									
version=1									
nRows=183									
nColumns=10									
inDegrees=yes									
endheader									
time	chair_force_vx	chair_force_vy	chair_force_vz	chair_force_px	chair_force_py	chair_force_pz	chair_torque_x	chair_torque_y	chair_torque_z
0	-3.38873031	246.9485679	0	0	0	0	0	0	0
0.00658504	2.99559043	236.5078966	0	0	0	0	0	0	0
0.00758096	-2.95935953	247.2179396	0	0	0	0	0	0	0
0.00914656	-2.01790182	246.0641546	0	0	0	0	0	0	0
0.01533423	5.42715147	236.3578897	0	0	0	0	0	0	0
0.01623759	2.8487641	241.5765701	0	0	0	0	0	0	0
0.01786224	3.0652653	242.5338666	0	0	0	0	0	0	0
0.02547068	6.92238001	242.8591136	0	0	0	0	0	0	0
0.03670732	33.82925602	207.7368519	0	0	0	0	0	0	0
0.03783098	29.80853122	215.9018117	0	0	0	0	0	0	0
0.03895464	24.11152658	227.0763014	0	0	0	0	0	0	0
0.04058711	23.98016941	229.1205519	0	0	0	0	0	0	0
0.04648742	27.50329233	229.9577389	0	0	0	0	0	0	0
0.06418955	44.35707539	224.4234857	0	0	0	0	0	0	0
0.07874199	55.01527435	215.9746868	0	0	0	0	0	0	0
0.08019723	59.78453114	215.5373208	0	0	0	0	0	0	0
0.08325322	64.10662598	214.206671	0	0	0	0	0	0	0
0.09315411	80.86068147	210.2020519	0	0	0	0	0	0	0
0.09461019	78.51407828	209.2334072	0	0	0	0	0	0	0
0.09814076	80.40110624	207.4872016	0	0	0	0	0	0	0
0.10456595	86.41019994	204.8848794	0	0	0	0	0	0	0
0.11099113	92.57258673	203.6889081	0	0	0	0	0	0	0
0.12406722	96.94451956	204.5787691	0	0	0	0	0	0	0
0.12537483	101.8535646	205.2085274	0	0	0	0	0	0	0
0.12772786	103.9394348	205.8357022	0	0	0	0	0	0	0
0.13752301	116.7162254	209.2680647	0	0	0	0	0	0	0
0.13891224	112.9865729	209.330427	0	0	0	0	0	0	0
0.14214161	112.6499379	210.1942908	0	0	0	0	0	0	0
0.14922915	115.2508464	212.4420278	0	0	0	0	0	0	0
0.15901471	131.3952702	216.6607115	0	0	0	0	0	0	0
0.16002496	126.7004584	216.5600639	0	0	0	0	0	0	0
0.1618098	123.5299206	216.8136838	0	0	0	0	0	0	0
0.16551902	123.6647697	217.9018059	0	0	0	0	0	0	0
0.1734582	126.340719	220.3986236	0	0	0	0	0	0	0
0.18146044	135.7223611	223.4013543	0	0	0	0	0	0	0
0.18303664	132.9009625	223.5922677	0	0	0	0	0	0	0
0.18703242	132.7759127	224.6440621	0	0	0	0	0	0	0
0.19468061	135.2063742	226.7958693	0	0	0	0	0	0	0
0.20312997	145.3631787	229.6110824	0	0	0	0	0	0	0
0.2046171	141.7732396	229.6507637	0	0	0	0	0	0	0
0.20813123	140.9358746	230.3541423	0	0	0	0	0	0	0
0.21570723	141.8783611	232.0274476	0	0	0	0	0	0	0
0.2216191	147.3742168	233.6346432	0	0	0	0	0	0	0
0.22567467	145.3362243	234.2594734	0	0	0	0	0	0	0
0.23216071	145.8769687	235.5111578	0	0	0	0	0	0	0
0.24011269	156.6261701	237.6931075	0	0	0	0	0	0	0
0.24141034	151.1242773	237.5193281	0	0	0	0	0	0	0
0.24424273	148.9346579	237.839797	0	0	0	0	0	0	0
0.25171866	143.1501426	238.6573483	0	0	0	0	0	0	0
0.25255982	148.1792473	239.1243484	0	0	0	0	0	0	0
0.25416701	149.1835053	239.4368182	0	0	0	0	0	0	0
0.25939276	150.7843421	240.3120496	0	0	0	0	0	0	0
0.26587439	148.3866104	241.0522177	0	0	0	0	0	0	0
0.26773573	150.6149216	241.4295931	0	0	0	0	0	0	0
0.27136331	151.1307554	241.9109429	0	0	0	0	0	0	0
0.28054104	149.201725	242.8294145	0	0	0	0	0	0	0
0.28151892	151.220906	243.0343243	0	0	0	0	0	0	0
0.28404362	151.9067372	243.3144105	0	0	0	0	0	0	0
0.28997843	151.9997512	243.8337791	0	0	0	0	0	0	0
0.29532797	155.1796187	244.365125	0	0	0	0	0	0	0
0.29894386	152.6644445	244.476716	0	0	0	0	0	0	0
0.30516228	147.4056656	244.3927189	0	0	0	0	0	0	0
0.30589101	151.2932567	244.5090374	0	0	0	0	0	0	0
0.30758137	152.1401666	244.451997	0	0	0	0	0	0	0
0.31153763	151.8957464	244.0906736	0	0	0	0	0	0	0
0.31808724	143.4208657	242.8735215	0	0	0	0	0	0	0
0.31884322	149.5408792	242.8896504	0	0	0	0	0	0	0
0.32030789	150.3368784	242.6137098	0	0	0	0	0	0	0
0.32385037	149.9739871	241.7608437	0	0	0	0	0	0	0
0.32944064	141.3365691	239.8683427	0	0	0	0	0	0	0
0.33011135	147.1901953	239.7193763	0	0	0	0	0	0	0
0.3316303	148.4494217	239.1672256	0	0	0	0	0	0	0
0.33476717	147.6865816	237.8737214	0	0	0	0	0	0	0
0.3404475	158.2524217	235.2953889	0	0	0	0	0	0	0
0.34152945	150.8150461	234.7073164	0	0	0	0	0	0	0
0.34400624	147.090723	233.4173895	0	0	0	0	0	0	0
0.34839608	141.0664163	231.0719038	0	0	0	0	0	0	0
0.34964528	146.662911	230.3638366	0	0	0	0	0	0	0
0.35136508	145.3897408	229.4029532	0	0	0	0	0	0	0
0.35625434	135.4126832	226.6904774	0	0	0	0	0	0	0
0.35685849	142.3896766	226.2550749	0	0	0	0	0	0	0
0.35841633	144.6218336	225.3040778	0	0	0	0	0	0	0
0.36105246	143.3702438	223.7390425	0	0	0	0	0	0	0
0.3661113	155.6997225	220.3467788	0	0	0	0	0	0	0
0.36708827	146.9431142	219.928926	0	0	0	0	0	0	0
0.36920653	142.9037951	218.691508	0	0	0	0	0	0	0
0.37314492	137.0249729	216.3625841	0	0	0	0	0	0	0
0.37438327	142.1035014	215.4027478	0	0	0	0	0	0	0
0.37610647	140.6634883	214.3352201	0	0	0	0	0	0	0
0.38069232	130.4263503	211.7518062	0	0	0	0	0	0	0
0.38126543	137.4470931	211.0813667	0	0	0	0	0	0	0
0.38280512	140.0075743	209.9492943	0	0	0	0	0	0	0
0.38524528	138.3575246	208.3923743	0	0	0	0	0	0	0
0.3898555	150.3505054	204.6197962	0	0	0	0	0	0	0
0.39078525	141.6737232	204.4439376	0	0	0	0	0	0	0
0.39296967	137.5097006	203.1695872	0	0	0	0	0	0	0
0.39659204	130.6919452	201.087232	0	0	0	0	0	0	0
0.39768589	136.8391757	199.9293055	0	0	0	0	0	0	0
0.3991456	135.3912658	199.0028497	0	0	0	0	0	0	0
0.40319986	123.3418497	196.5403889	0	0	0	0	0	0	0
0.40372021	130.4418498	195.4691034	0	0	0	0	0	0	0
0.40506974	131.7462513	193.8292607	0	0	0	0	0	0	0
0.40758332	128.9751154	190.7408345	0	0	0	0	0	0	0
0.41423848	120.5722524	180.4323094	0	0	0	0	0	0	0
0.42089363	111.0757907	167.7970167	0	0	0	0	0	0	0
0.4352682	89.70436626	137.3050372	0	0	0	0	0	0	0
0.44964276	69.2235063	106.5258177	0	0	0	0	0	0	0
0.48581833	25.101418	37.6756382	0	0	0	0	0	0	0
0.50133585	8.66595295	12.70062063	0	0	0	0	0	0	0
0.52350622	0	0	0	0	0	0	0	0	0
0.54476214	0	0	0	0	0	0	0	0	0
0.5584245	0	0	0	0	0	0	0	0	0
0.57208686	0	0	0	0	0	0	0	0	0
0.58663479	0	0	0	0	0	0	0	0	0
0.59801651	0	0	0	0	0	0	0	0	0
0.60470464	0	0	0	0	0	0	0	0	0
0.61139277	0	0	0	0	0	0	0	0	0
0.63076342	0	0	0	0	0	0	0	0	0
0.64632785	0	0	0	0	0	0	0	0	0
0.65333085	0	0	0	0	0	0	0	0	0
0.66243632	0	0	0	0	0	0	0	0	0
0.67488613	0	0	0	0	0	0	0	0	0
0.68211603	0	0	0	0	0	0	0	0	0
0.68934593	0	0	0	0	0	0	0	0	0
0.69973345	0	0	0	0	0	0	0	0	0
0.70798736	0	0	0	0	0	0	0	0	0
0.71624128	0	0	0	0	0	0	0	0	0
0.7236515	0	0	0	0	0	0	0	0	0
0.73106173	0	0	0	0	0	0	0	0	0
0.73847196	0	0	0	0	0	0	0	0	0
0.74588218	0	0	0	0	0	0	0	0	0
0.75522789	0	0	0	0	0	0	0	0	0
0.76161156	0	0	0	0	0	0	0	0	0
0.76799523	0	0	0	0	0	0	0	0	0
0.7766752	0	0	0	0	0	0	0	0	0
0.78476863	0	0	0	0	0	0	0	0	0
0.79286207	0	0	0	0	0	0	0	0	0
0.79761002	0	0	0	0	0	0	0	0	0
0.80235797	0	0	0	0	0	0	0	0	0
0.81022582	0	0	0	0	0	0	0	0	0
0.81815944	0	0	0	0	0	0	0	0	0
0.83122108	0	0	0	0	0	0	0	0	0
0.83973399	0	0	0	0	0	0	0	0	0
0.8482469	0	0	0	0	0	0	0	0	0
0.8537774	0	0	0	0	0	0	0	0	0
0.85930789	0	0	0	0	0	0	0	0	0
0.87111153	0	0	0	0	0	0	0	0	0
0.87816317	0	0	0	0	0	0	0	0	0
0.88521481	0	0	0	0	0	0	0	0	0
0.89226646	0	0	0	0	0	0	0	0	0
0.8993181	0	0	0	0	0	0	0	0	0
0.90636974	0	0	0	0	0	0	0	0	0
0.91342139	0	0	0	0	0	0	0	0	0
0.92047303	0	0	0	0	0	0	0	0	0
0.93105176	0	0	0	0	0	0	0	0	0
0.94566781	0	0	0	0	0	0	0	0	0
0.96028385	0	0	0	0	0	0	0	0	0
0.97543219	0	0	0	0	0	0	0	0	0
0.99058052	0	0	0	0	0	0	0	0	0
1.00308521	0	0	0	0	0	0	0	0	0
1.01558989	0	0	0	0	0	0	0	0	0
1.02809457	0	0	0	0	0	0	0	0	0
1.04059926	0	0	0	0	0	0	0	0	0
1.05310394	0	0	0	0	0	0	0	0	0
1.06560862	0	0	0	0	0	0	0	0	0
1.07811331	0	0	0	0	0	0	0	0	0
1.09656537	0	0	0	0	0	0	0	0	0
1.1044154	0	0	0	0	0	0	0	0	0
1.11387599	0	0	0	0	0	0	0	0	0
1.12673147	0	0	0	0	0	0	0	0	0
1.13958695	0	0	0	0	0	0	0	0	0
1.14963265	0	0	0	0	0	0	0	0	0
1.16379009	0	0	0	0	0	0	0	0	0
1.17528028	0	0	0	0	0	0	0	0	0
1.18677047	0	0	0	0	0	0	0	0	0
1.19679994	0	0	0	0	0	0	0	0	0
1.20369936	0	0	0	0	0	0	0	0	0
1.21087403	0	0	0	0	0	0	0	0	0
1.21804871	0	0	0	0	0	0	0	0	0
1.22147569	0	0	0	0	0	0	0	0	0
1.22490267	0	0	0	0	0	0	0	0	0
1.22944349	0	0	0	0	0	0	0	0	0
1.23311749	0	0	0	0	0	0	0	0	0
